<?xml version="1.0" encoding="UTF-8" standalone="no"?>
<svg
   preserveAspectRatio="none"
   viewBox="0 0 1440 177"
   fill="none"
   version="1.1"
   id="svg9072"
   sodipodi:docname="header-vector-2.svg"
   inkscape:version="1.2 (dc2aedaf03, 2022-05-15)"
   xmlns:inkscape="http://www.inkscape.org/namespaces/inkscape"
   xmlns:sodipodi="http://sodipodi.sourceforge.net/DTD/sodipodi-0.dtd"
   xmlns="http://www.w3.org/2000/svg"
   xmlns:svg="http://www.w3.org/2000/svg">
  <defs
     id="defs9076" />
  <sodipodi:namedview
     id="namedview9074"
     pagecolor="#ffffff"
     bordercolor="#000000"
     borderopacity="0.25"
     inkscape:showpageshadow="2"
     inkscape:pageopacity="0.0"
     inkscape:pagecheckerboard="0"
     inkscape:deskcolor="#d1d1d1"
     showgrid="false"
     inkscape:zoom="0.80625"
     inkscape:cx="590.3876"
     inkscape:cy="-39.689922"
     inkscape:window-width="1920"
     inkscape:window-height="1017"
     inkscape:window-x="1912"
     inkscape:window-y="-8"
     inkscape:window-maximized="1"
     inkscape:current-layer="svg9072" />
  <path
     fill-rule="evenodd"
     clip-rule="evenodd"
     d="m 0,32.8457 24,31.8669 c 24,31.8669 33.550388,103.93151 81.55039,103.93151 48,0 157.79377,-32.03752 205.79377,-32.03752 48,0 97.46204,40.39341 125.61708,40.39341 C 492.4031,177 528,151.208 576,142.104 c 48,-9.105 96,9.104 144,0 48,-9.105 96,-45.5245 144,-50.0769 48,-4.5524 96,22.7619 144,31.8669 48,9.105 96,0 144,4.552 48,4.553 96,22.762 144,13.658 48,-9.105 96,-45.5245 120,-63.7342 l 24,-18.2096 V 5.53125 H 1416 1296 1152 1008 864 720 576 432 288 144 24 0 Z"
     fill="#004dbe"
     id="path9066"
     sodipodi:nodetypes="cssscccssccsccccccccccccccc" />
  <path
     fill-rule="evenodd"
     clip-rule="evenodd"
     d="m 0,150.65961 v 14.88372 C 88.278109,132.4719 244.71317,141.64536 274.97674,134.25207 403.2248,103.91294 408.74751,165.26713 495.37984,123.43769 580.21705,82.475009 650.9276,153.86978 731.28682,95.730423 822.32558,29.86449 986.49507,144.17587 1076.2851,110.06602 1130.1145,89.617029 1296,62.538308 1440,132.66436 V 37.4035 -2.28882e-5 H 1392 1152 864 576 288 48 0 Z"
     fill="#0068de"
     id="path9068"
     sodipodi:nodetypes="cccsssccccccccccc" />
  <path
     fill-rule="evenodd"
     clip-rule="evenodd"
     d="m 0,75.6573 v 56.53932 C 58.807531,91.265625 102.30025,135.84779 158.88435,131.6483 325.0974,107.48076 347.28732,96.787029 400.00001,91.861359 473.79797,86.935792 403.72142,133.97051 478.75969,109.76658 557.51889,81.841818 604.58731,39.519304 635.03876,29.1821 676.26129,15.188492 675.34933,18.65725 729.30233,31.62705 783.25533,43.51605 810.047,-7.5657229 864,-2.28882e-5 H 1152 1330.8678 1440 V 75.6573 -2.28882e-5 H 1413.95 1280 1120 960 800 640 480 320 160 26.0465 0 Z"
     fill="#0099ff"
     id="path9070"
     sodipodi:nodetypes="cccccsccssccccccccccccccc" />
</svg>
