<?xml version="1.0" encoding="UTF-8" standalone="no"?>
<!-- Created with Inkscape (http://www.inkscape.org/) -->

<svg
   width="146.40204mm"
   height="77.676071mm"
   viewBox="0 0 146.40204 77.67607"
   version="1.1"
   id="svg23005"
   xml:space="preserve"
   inkscape:version="1.2 (dc2aedaf03, 2022-05-15)"
   sodipodi:docname="logo.svg"
   inkscape:export-filename="..\logo.svg"
   inkscape:export-xdpi="96"
   inkscape:export-ydpi="96"
   xmlns:inkscape="http://www.inkscape.org/namespaces/inkscape"
   xmlns:sodipodi="http://sodipodi.sourceforge.net/DTD/sodipodi-0.dtd"
   xmlns="http://www.w3.org/2000/svg"
   xmlns:svg="http://www.w3.org/2000/svg"><sodipodi:namedview
     id="namedview23007"
     pagecolor="#ffffff"
     bordercolor="#000000"
     borderopacity="0.25"
     inkscape:showpageshadow="2"
     inkscape:pageopacity="0.0"
     inkscape:pagecheckerboard="0"
     inkscape:deskcolor="#d1d1d1"
     inkscape:document-units="mm"
     showgrid="true"
     inkscape:zoom="1.4142136"
     inkscape:cx="250.3158"
     inkscape:cy="-3.5355339"
     inkscape:window-width="1920"
     inkscape:window-height="1017"
     inkscape:window-x="-8"
     inkscape:window-y="-8"
     inkscape:window-maximized="1"
     inkscape:current-layer="layer1"
     showguides="true"><inkscape:grid
       type="xygrid"
       id="grid23387"
       snapvisiblegridlinesonly="false"
       visible="false"
       enabled="false"
       originx="-42.730535"
       originy="-17.933248" /><inkscape:grid
       type="xygrid"
       id="grid1438"
       visible="false"
       enabled="false"
       originx="-42.730535"
       originy="-17.933248" /><inkscape:grid
       type="axonomgrid"
       id="grid1440"
       spacingy="1.401"
       empcolor="#0043e5"
       empopacity="0.30196078"
       enabled="false"
       originx="-42.730535"
       originy="-17.933248" /></sodipodi:namedview><defs
     id="defs23002" /><g
     inkscape:label="Layer 1"
     inkscape:groupmode="layer"
     id="layer1"
     transform="translate(-42.730537,-17.93325)"><path
       id="path11821"
       style="fill:#000000;fill-opacity:1;stroke:none;stroke-width:0.259602;stroke-dashoffset:5.376"
       d="m 81.676012,36.330215 8.851239,5.110268 1.1e-5,38.838031 8.851241,5.110268 V 95.609324 L 81.676012,85.388782 Z M 60.433027,47.57281 v 37.815972 l 8.85124,5.110272 V 42.462536 Z m -17.70249,-13.286703 8.851251,5.110269 v 10.220541 l -8.851251,-5.110268 z" /><path
       id="path2541-7-4"
       style="fill:#000000;fill-opacity:1;stroke:none;stroke-width:0.259602;stroke-dashoffset:5.376"
       d="M 101.14876,85.388782 110,80.278514 v 10.22054 l -8.85124,5.11027 z m -8.851259,-43.948299 8.851259,-5.110268 1e-5,37.815977 -8.85126,5.110268 z M 53.352036,39.396376 90.527251,17.93325 v 10.220536 l -10.621496,6.132321 v 51.102675 l -8.851239,5.110272 V 39.396376 l -17.70248,10.220541 z" /><path
       id="path992-4"
       style="font-weight:bold;font-size:31.5007px;line-height:1.25;font-family:Roboto;-inkscape-font-specification:'Roboto Bold';letter-spacing:-0.820332px;word-spacing:0px;stroke-width:0.16514"
       d="m 184.78216,75.651427 q 0,-0.820536 -0.82053,-1.284995 -0.80506,-0.479941 -2.60096,-0.851506 -5.976,-1.254034 -5.976,-5.078048 0,-2.229389 1.84234,-3.715648 1.85782,-1.50174 4.84583,-1.50174 3.18926,0 5.09353,1.50174 1.91975,1.501741 1.91975,3.90143 h -4.47426 q 0,-0.959876 -0.61927,-1.57915 -0.61928,-0.634757 -1.93523,-0.634757 -1.13018,0 -1.74946,0.510902 -0.61928,0.510902 -0.61928,1.300476 0,0.74313 0.69669,1.207585 0.71216,0.448974 2.38421,0.789579 1.67204,0.325114 2.81769,0.743131 3.54535,1.300476 3.54535,4.505212 0,2.291323 -1.96619,3.715655 -1.9662,1.40885 -5.07805,1.40885 -2.10554,0 -3.74661,-0.743132 -1.62561,-0.758602 -2.55451,-2.059088 -0.92891,-1.315956 -0.92891,-2.833186 h 4.24203 q 0.0619,1.192111 0.88246,1.826873 0.82055,0.634757 2.19842,0.634757 1.285,0 1.93523,-0.479941 0.66573,-0.49542 0.66573,-1.284999 z m -10.76941,-3.591793 q 0,4.025281 -1.71848,6.285643 -1.71849,2.244866 -4.79939,2.244866 -2.72481,0 -4.35039,-2.090049 l -0.20128,1.780416 h -4.02527 V 56.500361 h 4.47425 v 8.530507 q 1.54819,-1.811378 4.07172,-1.811378 3.06541,0 4.7994,2.260351 1.74944,2.24487 1.74944,6.332082 z m -4.47427,-0.325114 q 0,-2.539031 -0.80505,-3.700171 -0.80506,-1.176622 -2.39969,-1.176622 -2.1365,0 -2.94155,1.74945 v 6.610761 q 0.82053,1.764931 2.97251,1.764931 2.16747,0 2.84867,-2.136496 0.32511,-1.021805 0.32511,-3.111853 z m -17.0868,8.54599 q -0.30965,-0.603796 -0.44898,-1.501745 -1.6256,1.811378 -4.22654,1.811378 -2.46162,0 -4.08722,-1.42433 -1.61012,-1.424332 -1.61012,-3.5918 0,-2.662873 1.96621,-4.087214 1.98168,-1.424331 5.7128,-1.439812 h 2.0591 v -0.959872 q 0,-1.161139 -0.60381,-1.857823 -0.58831,-0.696684 -1.87331,-0.696684 -1.13016,0 -1.7804,0.541865 -0.63476,0.541866 -0.63476,1.486259 h -4.47426 q 0,-1.455295 0.89796,-2.693845 0.89794,-1.238548 2.53903,-1.935232 1.64106,-0.712165 3.68468,-0.712165 3.09635,0 4.90774,1.563667 1.82686,1.548187 1.82686,4.365886 v 7.261001 q 0.0155,2.384202 0.66573,3.607275 v 0.263191 z m -3.70017,-3.111853 q 0.99084,0 1.82686,-0.433499 0.83602,-0.448969 1.23856,-1.192105 v -2.879624 h -1.67206 q -3.35956,0 -3.57631,2.32228 l -0.0155,0.263191 q 0,0.836015 0.58831,1.377884 0.58832,0.541873 1.61011,0.541873 z M 131.33957,76.54938 h 9.86196 v 3.73113 H 126.695 v -22.5416 h 4.64456 z m 32.05262,-34.955832 q 1.78042,-2.136497 4.47427,-2.136497 5.44961,0 5.52701,6.332082 v 10.728931 h -4.47425 V 45.912988 q 0,-1.439814 -0.61928,-2.121016 -0.61927,-0.696684 -2.05908,-0.696684 -1.96619,0 -2.84867,1.517223 v 11.905553 h -4.47425 V 32.737922 h 4.47425 z m -13.10797,11.626879 q 1.23854,0 2.01264,-0.681202 0.77408,-0.681202 0.80505,-1.811378 h 4.19558 q -0.0155,1.703004 -0.92891,3.127337 -0.91343,1.408849 -2.50806,2.198423 -1.57915,0.774095 -3.4989,0.774095 -3.59179,0 -5.66637,-2.275835 -2.07456,-2.291316 -2.07456,-6.3166 v -0.294155 q 0,-3.870466 2.05908,-6.177264 2.05909,-2.306797 5.65089,-2.306797 3.14282,0 5.03161,1.795895 1.90426,1.780414 1.93522,4.752933 h -4.19558 q -0.031,-1.300477 -0.80505,-2.105533 -0.7741,-0.820539 -2.0436,-0.820539 -1.56369,0 -2.36874,1.145657 -0.78957,1.130176 -0.78957,3.684684 v 0.464456 q 0,2.58547 0.78957,3.715647 0.78958,1.130176 2.3997,1.130176 z m -15.5696,3.607275 q -3.68469,0 -6.00697,-2.260353 -2.30678,-2.260352 -2.30678,-6.022445 v -0.433493 q 0,-2.523543 0.97535,-4.505221 0.97537,-1.99716 2.75577,-3.065409 1.79589,-1.08373 4.08721,-1.08373 3.43697,0 5.40317,2.16746 1.98168,2.167461 1.98168,6.1463 v 1.826861 h -10.667 q 0.21673,1.641077 1.30047,2.631916 1.09921,0.990839 2.77125,0.990839 2.58547,0 4.04078,-1.873306 l 2.19842,2.461616 q -1.00632,1.424332 -2.72481,2.229389 -1.71849,0.789576 -3.80854,0.789576 z m -0.5109,-13.747895 q -1.33144,0 -2.16746,0.897948 -0.82054,0.897947 -1.05277,2.569989 h 6.22371 v -0.356083 q -0.031,-1.486259 -0.80506,-2.291315 -0.77409,-0.820539 -2.19842,-0.820539 z m -5.84221,-5.031605 h -6.90492 v 18.7795 h -4.64455 v -18.7795 H 110 v -3.762093 h 18.36151 z"
       inkscape:transform-center-x="-22.871278"
       inkscape:transform-center-y="-23.616477" /></g></svg>
